PathFileType	4	(X/Y/Z)	D:\Share\Shared_Data\Ergonomics\Sit To Stand Pertubation\S1\Unperturbed_NoHarness.trc
DataRate	CameraRate	NumFrames	NumMarkers	Units	OrigDataRate	OrigDataStartFrame	OrigNumFrames	
100	100	18	18	m	100	329	211
Frame#	Time	R_Thigh_Med			R_ASIS			R_Pelvis			V_Sacral			L_Pelvis			L_ASIS			Clavical			R_Acromium			L_Acromium			Sternum			Torso			R_Thigh_Lat			R_Thigh			R_Shank_Med			R_Shank_Lat			R_Shank			R_Heel			R_Toe			
		X1	Y1	Z1	X2	Y2	Z2	X3	Y3	Z3	X4	Y4	Z4	X5	Y5	Z5	X6	Y6	Z6	X7	Y7	Z7	X8	Y8	Z8	X9	Y9	Z9	X10	Y10	Z10	X11	Y11	Z11	X12	Y12	Z12	X13	Y13	Z13	X14	Y14	Z14	X15	Y15	Z15	X16	Y16	Z16	X17	Y17	Z17	X18	Y18	Z18	

329	3.28	0.32661389	0.42458176	0.024819279	0.44755154	0.89773047	0.084028687	0.36871826	0.91114215	0.12746787	0.27488559	0.90534119	-0.023136541	0.37312933	0.90839789	-0.17486723	0.46133084	0.90359991	-0.11560111	0.44700626	1.2545647	-0.025994173	0.38117142	1.3244735	0.1235911	0.33768115	1.2750703	-0.22781874	0.43172629	1.2669884	0.076769012	0.44343506	1.2587325	-0.086388252	0.35331165	0.44154315	0.15424506	0.44063864	0.60420471	0.094886711	0.31437955	0.10331263	0.07046302	0.29052771	0.10205553	0.15038446	0.3140784	0.3125975	0.17086172	0.24424661	0.033067017	0.091942696	0.44946201	0.045058689	0.1180446
330	3.29	0.32592239	0.42454129	0.025726078	0.44846109	0.89761591	0.083816269	0.36967255	0.91090808	0.12731247	0.27588406	0.90510297	-0.023226461	0.37395862	0.9081496	-0.17502213	0.46217752	0.90346979	-0.11579456	0.44623929	1.2544735	-0.026223116	0.38022653	1.3241101	0.12341877	0.33690732	1.2743983	-0.22774506	0.43095712	1.2668121	0.076544182	0.44263885	1.258627	-0.086624435	0.35249362	0.44154465	0.1544707	0.44060669	0.60378821	0.094919258	0.3142121	0.10331252	0.070496452	0.29042773	0.10194579	0.15042757	0.31348785	0.31253925	0.17106143	0.24423427	0.03303471	0.091944298	0.44946979	0.045056183	0.11804189
331	3.3	0.32510748	0.42460962	0.025762543	0.44929514	0.89747766	0.083612778	0.37055722	0.91065192	0.12717448	0.27679871	0.90486517	-0.023302969	0.374716	0.90790942	-0.17516827	0.46294797	0.90333392	-0.11597723	0.44548959	1.2543599	-0.026428947	0.37930585	1.3237373	0.12326491	0.33616016	1.2737051	-0.22762459	0.43020239	1.2666185	0.076340759	0.44186591	1.2584954	-0.086840942	0.35176642	0.44153281	0.15467107	0.44057681	0.60337946	0.094916344	0.31404962	0.10329119	0.070520767	0.2903299	0.10181957	0.15047023	0.31295633	0.31246381	0.1712359	0.24422025	0.032994667	0.091949211	0.44947467	0.045056915	0.11804057
332	3.31	0.32418927	0.424776	0.024978699	0.45005365	0.89732288	0.08342292	0.37136639	0.91038	0.12705381	0.27763065	0.90463452	-0.02336932	0.37540726	0.90768195	-0.17530411	0.46364603	0.90319611	-0.11614473	0.44475955	1.2542311	-0.026611465	0.37841382	1.3233634	0.12312808	0.33541544	1.2730332	-0.22752095	0.42946689	1.266416	0.076158836	0.441117	1.258344	-0.087036934	0.35113269	0.44151654	0.15485468	0.44055664	0.60298242	0.094892746	0.3138952	0.10325043	0.07053804	0.29023453	0.10167986	0.15051385	0.3124881	0.31237314	0.17138675	0.24420491	0.032949203	0.091956146	0.44947784	0.045059113	0.11804015
333	3.32	0.3232399	0.42499829	0.02364834	0.45073788	0.8971593	0.083250809	0.37209317	0.91010071	0.12694823	0.27838211	0.90441559	-0.023431385	0.3760372	0.90747064	-0.17542981	0.46427545	0.90306256	-0.1162943	0.44405161	1.2540948	-0.02677154	0.37755484	1.3229976	0.12300648	0.33464236	1.272436	-0.22751999	0.42875525	1.2662119	0.075998077	0.44039267	1.2581798	-0.087211853	0.35059576	0.44150232	0.15502591	0.44055267	0.60260291	0.094860947	0.31375232	0.10319332	0.070549263	0.29014432	0.10153226	0.1505578	0.31208728	0.31227036	0.17151457	0.24418919	0.032901573	0.091963028	0.44948093	0.045060757	0.11804009
334	3.33	0.32235229	0.42522168	0.022151293	0.45135046	0.89699567	0.083099579	0.37273032	0.90982513	0.1268533	0.27905655	0.90421063	-0.023496326	0.37661014	0.90727783	-0.17554733	0.46484006	0.90294293	-0.11642464	0.44336823	1.2539574	-0.026910843	0.37673233	1.3226481	0.12289845	0.33382812	1.2719457	-0.22766975	0.42807095	1.2660125	0.075857681	0.43969281	1.258009	-0.087365738	0.35015689	0.44149258	0.15518283	0.44056967	0.60224792	0.094829613	0.31362518	0.10312443	0.070554123	0.29006305	0.10138452	0.15059938	0.31175586	0.31216055	0.17161879	0.24417439	0.032855453	0.09196804	0.44948508	0.0450606	0.11804003
335	3.34	0.32159836	0.42540573	0.020797115	0.45189517	0.89684149	0.082970909	0.37327454	0.90956622	0.12676391	0.27965958	0.90402161	-0.023570051	0.37713028	0.90710529	-0.17565965	0.46534451	0.90284808	-0.11653555	0.4427114	1.2538254	-0.027031479	0.37594867	1.3223224	0.12280249	0.33299423	1.2715503	-0.2279379	0.42741553	1.2658245	0.075736526	0.43901697	1.2578394	-0.087499207	0.34981238	0.44148621	0.15531825	0.44060938	0.6019256	0.094803078	0.31351788	0.10304977	0.070551552	0.28999429	0.1012457	0.1506349	0.31149268	0.31205139	0.1716978	0.24416183	0.032814255	0.091970177	0.44949103	0.045058575	0.11803957
336	3.35	0.32100894	0.42553754	0.019738552	0.45237717	0.89670654	0.082864487	0.3737283	0.90933649	0.1266759	0.28019846	0.90385071	-0.023655724	0.37760284	0.90695435	-0.17576958	0.46579465	0.90278851	-0.11662672	0.44208173	1.2537056	-0.027135593	0.37520474	1.3220272	0.12271728	0.33217764	1.2712181	-0.22825307	0.42678802	1.2656543	0.075633247	0.43836368	1.2576777	-0.087612946	0.34955042	0.44148013	0.15542316	0.44067065	0.60164343	0.09478228	0.31343341	0.10297633	0.070540741	0.28993979	0.10112495	0.15066122	0.31129123	0.31195242	0.1717502	0.24415266	0.032780579	0.091969299	0.44949902	0.045055382	0.11803814
337	3.36	0.32058038	0.42562372	0.019002855	0.45280264	0.89659924	0.082777985	0.37409723	0.90914783	0.12658652	0.28068146	0.90369836	-0.023754919	0.37803378	0.9068255	-0.17587921	0.46619739	0.90277515	-0.11669663	0.44147806	1.2536034	-0.027224787	0.37449957	1.3217684	0.12264175	0.33140662	1.2709285	-0.22856079	0.42618625	1.2655072	0.075546539	0.43773181	1.2575304	-0.087707413	0.34935049	0.44147125	0.155491	0.44074966	0.6014068	0.094766777	0.31337265	0.10291096	0.070521835	0.28989838	0.10103007	0.15067667	0.31113898	0.31187378	0.17177596	0.24414769	0.032755947	0.091965736	0.44950891	0.045051804	0.11803528
338	3.37	0.32028787	0.42567822	0.018550364	0.45317838	0.89652551	0.082707603	0.37438977	0.90900806	0.12649433	0.28111734	0.90356226	-0.023868948	0.37842941	0.9067182	-0.17598967	0.46656055	0.90281805	-0.11674321	0.44089752	1.2535203	-0.027299685	0.37382996	1.3215497	0.12257536	0.33069678	1.2706732	-0.22883127	0.42560681	1.2653853	0.075475464	0.43712036	1.2574022	-0.087782822	0.34918622	0.44145847	0.15552061	0.44084024	0.60121686	0.094756905	0.31333432	0.10285947	0.070496475	0.28986597	0.10096592	0.15068159	0.31101852	0.31182391	0.1717771	0.24414708	0.032740719	0.091960075	0.4495199	0.04504874	0.11803115
339	3.38	0.32009824	0.42571228	0.018316364	0.45351132	0.89648737	0.082648659	0.37462155	0.9089165	0.12639944	0.28151532	0.90343829	-0.023997799	0.37879498	0.90663098	-0.17610115	0.46689188	0.90292041	-0.11676613	0.44033563	1.2534545	-0.027360182	0.37319119	1.3213727	0.12251772	0.33005527	1.2704492	-0.22904921	0.42504587	1.2652891	0.07541925	0.43652817	1.2572944	-0.087839272	0.34903033	0.44144208	0.1555162	0.4409342	0.60107043	0.094754601	0.31331497	0.10282574	0.070467834	0.28983682	0.10093355	0.15067867	0.31091013	0.31180765	0.17175822	0.24415024	0.032734138	0.091953094	0.44953021	0.045047409	0.11802677
340	3.39	0.31997992	0.42572928	0.01823686	0.45380753	0.89648285	0.0825961	0.37481818	0.90885931	0.12630297	0.28188409	0.90332263	-0.024138252	0.37913431	0.90656128	-0.17621259	0.46719873	0.90307355	-0.11676934	0.4397865	1.253401	-0.027405718	0.37257715	1.3212349	0.12246861	0.3294845	1.2702529	-0.22920718	0.42449884	1.265217	0.075377174	0.43595349	1.2572062	-0.087876945	0.34885974	0.44142288	0.15548578	0.44102255	0.60096094	0.094763367	0.31330978	0.10281108	0.070440117	0.28980475	0.1009302	0.15067255	0.31079584	0.31182516	0.17172649	0.24415591	0.032734444	0.091945633	0.44953793	0.045048698	0.11802341
341	3.4	0.31990955	0.42572333	0.018260866	0.45407172	0.89650641	0.082545403	0.37501068	0.90881256	0.12620577	0.28223016	0.90321259	-0.024283955	0.37944937	0.90650549	-0.17632191	0.4674866	0.90325464	-0.1167623	0.4392435	1.2533539	-0.027435518	0.37198218	1.3211299	0.12242805	0.32898547	1.2700796	-0.2293009	0.42396072	1.2651665	0.075348427	0.4353931	1.2571351	-0.087896187	0.34865909	0.44140198	0.15543977	0.44109659	0.60087933	0.09478717	0.31331299	0.10281367	0.070417686	0.28976514	0.10094971	0.15066901	0.31066315	0.31187115	0.17169048	0.24416257	0.032739101	0.091938408	0.44954184	0.04505233	0.11802212
342	3.41	0.31987387	0.42568207	0.018353006	0.45430731	0.89654993	0.082493385	0.37521747	0.90875629	0.12610928	0.28255603	0.90310669	-0.024427553	0.37973996	0.90645917	-0.17642624	0.46775778	0.90343475	-0.11675691	0.43870047	1.2533058	-0.027449211	0.37140164	1.3210487	0.12239629	0.3285578	1.2699194	-0.22932596	0.42342624	1.2651321	0.075332191	0.4348425	1.2570782	-0.087897598	0.34842413	0.44138144	0.15538969	0.44114981	0.60081555	0.094828766	0.31331888	0.10282891	0.070404037	0.28971625	0.10098338	0.15067349	0.3105076	0.31193616	0.17165858	0.24416869	0.032745041	0.091931999	0.4495415	0.045057014	0.11802347
343	3.42	0.31986801	0.42559198	0.018490284	0.4545163	0.89660376	0.08243895	0.37541772	0.90869684	0.12601876	0.28285794	0.90300293	-0.024562477	0.3800032	0.90641718	-0.17652242	0.46800983	0.90359045	-0.11676176	0.43815271	1.2532509	-0.027447308	0.37083118	1.32098	0.12237389	0.32819876	1.2697592	-0.22927856	0.42289005	1.2651055	0.075327751	0.43429843	1.2570311	-0.087882271	0.34816193	0.44136349	0.15534605	0.44117941	0.60075989	0.094888176	0.31332297	0.10285038	0.070400841	0.28965912	0.10102122	0.15068935	0.31033261	0.3120079	0.17163681	0.24417287	0.032749088	0.091926842	0.44953726	0.045061508	0.11802747
344	3.43	0.31989001	0.42544537	0.018656313	0.45469897	0.8966582	0.082383011	0.37554596	0.90867316	0.12594509	0.28312579	0.90289868	-0.024682926	0.38023395	0.90637482	-0.17660762	0.46823532	0.90371008	-0.11677892	0.43759723	1.2531836	-0.027430988	0.37026562	1.3209106	0.12236155	0.32790237	1.2695859	-0.2291599	0.42234738	1.2650771	0.075334534	0.43376007	1.2569877	-0.087851814	0.34788834	0.44134952	0.15531639	0.44118668	0.60070428	0.094961746	0.31332208	0.10287099	0.070407616	0.28959723	0.10105364	0.15071683	0.31014758	0.31207349	0.17162796	0.24417421	0.032748726	0.091923141	0.44953009	0.045065617	0.11803346
345	3.44	0.31993359	0.42524854	0.018835649	0.45485373	0.89670471	0.082327957	0.37553339	0.90872638	0.12589906	0.28334717	0.90278925	-0.024784323	0.38042709	0.90632758	-0.17667934	0.46842548	0.90379163	-0.11680521	0.43703275	1.2531008	-0.027401735	0.36969937	1.3208295	0.12236005	0.32765753	1.2693918	-0.2289836	0.42179465	1.2650374	0.075352158	0.43322757	1.2569413	-0.087808052	0.34762323	0.44133871	0.1553044	0.44117575	0.60064331	0.09504245	0.31331476	0.1028841	0.070421822	0.28953537	0.10107262	0.15075322	0.30996457	0.3121217	0.17163199	0.2441722	0.032742722	0.091920601	0.44952133	0.045070019	0.1180405
346	3.45	0.31997998	0.42502997	0.01900876	0.45497812	0.89673749	0.082276871	0.3753652	0.90885663	0.12588321	0.28351566	0.90266888	-0.024865229	0.38057977	0.90627209	-0.17673563	0.46857477	0.90383887	-0.11683515	0.43645959	1.2530002	-0.027361124	0.36912753	1.3207264	0.12237011	0.3274437	1.2691833	-0.22878598	0.4212298	1.2649775	0.075380394	0.4327001	1.2568864	-0.087752731	0.34738449	0.44132761	0.15530943	0.44115234	0.60057385	0.095121155	0.3133006	0.10288445	0.070439651	0.28947845	0.1010722	0.15079413	0.30979532	0.31214536	0.1716465	0.24416696	0.032731201	0.091918442	0.4495119	0.045075455	0.11804784
